<?xml version="1.0" encoding="UTF-8"?>
<svg class="icon" width="512" height="512" version="1.1" viewBox="0 0 1024 1024" xmlns="http://www.w3.org/2000/svg" xmlns:cc="http://creativecommons.org/ns#" xmlns:dc="http://purl.org/dc/elements/1.1/" xmlns:rdf="http://www.w3.org/1999/02/22-rdf-syntax-ns#">
 <metadata>
  <rdf:RDF>
   <cc:Work rdf:about="">
    <dc:format>image/svg+xml</dc:format>
    <dc:type rdf:resource="http://purl.org/dc/dcmitype/StillImage"/>
    <dc:title/>
   </cc:Work>
  </rdf:RDF>
 </metadata>
 <ellipse cx="490.71" cy="970.29" rx="337.19" ry="52.6" stroke="#000" stroke-linecap="round" stroke-linejoin="round" stroke-width="4.1729"/>
 <path d="m836.9 80.667c17.131 29.545 24.648 59.884 35.051 103.02 10.976 76.048 19.962 148.87 20.305 207.36 16.178 250.28-95.71 440.37-245.53 489.2 29.005 7.8033 25.948 18.794 19.781 36.226-11.567 32.694-59.278 65.995-106.24 48.377-32.839 29.44-92.776 47.553-166.85 47.553-84.619 0-141.1-21.242-183.54-65.127-36.267-39.187-32.378-88.367 52.389-56.104-106.98-39.192-181.45-161.48-180.78-263.01 1.0322-156.51 133.02-282.49 294.81-281.37 93.052-1.5522 157.79 61.582 223.98 44.362 36.88-11.317 45.4-52.419 33.234-110.68-32.778-103.4-52.155-246.71 62.6-276.61 61.458-15.359 105.7 16.292 140.79 76.807m-190.17 799.58c-19.408 9.2485-36.631 17.122-57.225 25.131" fill="#fea" stroke="#000" stroke-linejoin="bevel" stroke-width="7.4234"/>
 <g fill="none" stroke="#000">
  <path d="m287.31 494.39c25.519-7.0452 76.334-12.563 102.33-9.6887 110.05 12.166 204.17 103.47 206.6 211.19 0 61.089-21.29 117.47-66.367 157.57" stroke-width="9.8585"/>
  <path d="m327.68 937.38c27.577-44.727 98.145-73.12 138.33-78.89 20.73-2.9766 38.346-8.0301 55.842-5.7297 33.418 4.3938 62.931 23.228 67.648 52.618 0.99118 34.888-18.833 45.714-29.23 59.472" stroke-width="7.3979"/>
  <path d="m734.26 80.304c32.682-43.193 70.814 8.7937 34.373 39.65" stroke-linecap="round" stroke-width="7.4772"/>
  <path d="m664.44 120.19c-31.325-38.759 12.179-66.988 34.105-39.139" stroke-linecap="round" stroke-width="7.4772"/>
 </g>
 <g stroke="#000">
  <ellipse cx="684.06" cy="117.38" rx="7.9801" ry="10.367" stroke-width="2.7833"/>
  <ellipse cx="738.95" cy="114.99" rx="7.9801" ry="10.367" stroke-width="2.7833"/>
  <g stroke-linecap="round" stroke-linejoin="round" stroke-width="7.6208">
   <path d="m740.29 26.979 38.142 6.0757 25.315 34.766-24.535-25.173-20.358-0.47935z"/>
   <path d="m653.54 46.894 29.703-17.889-9.7122 13.41-16.616 6.1676-8.1009 24.978z"/>
   <path d="m632.28 169.08s-4.2724 10.735 3.1042 26.095c8.1354 16.94 31.498 28.683 31.498 28.683s51.843 9.3538 79.431-3.5651 48.798-32.382 53.048-54.587c4.2501-22.206 4.858 35.195-8.1009 60.757-12.959 25.562-78.984 76.283-78.984 76.283-37.149-43.783-67.521-84.804-78.844-109.76-4.9484-10.907-1.1521-23.902-1.1521-23.902z"/>
  </g>
 </g>
 <g fill="none" stroke="#000" stroke-linecap="round" stroke-width="3.7386">
  <path d="m750.41 154.23s39.226-15.872 68.301-22.408c25.816-5.8036 86.29-11.346 86.29-11.346"/>
  <path d="m757.93 172.77s48.475 0.19536 82.144 7.6596c29.894 6.6273 96.434 33.426 96.434 33.426"/>
  <path d="m755.02 191.36s51.085 5.6876 85.808 18.054c30.83 10.98 98.208 49.255 98.208 49.255"/>
  <path d="m745.83 201.49s33.395 9.6831 54.73 20.863c18.942 9.9263 58.048 39.343 58.048 39.343"/>
  <path d="m499.7 160.06s36.812-9.9494 63.034-11.053c23.282-0.97952 76.183 6.386 76.183 6.386"/>
  <path d="m505.9 233.95s36.03-25.179 64.199-36.852c25.011-10.364 85.854-23.877 85.854-23.877"/>
  <path d="m542.86 268.9s22.772-26.586 42.82-41.671c17.8-13.394 64.377-37.651 64.377-37.651"/>
  <path d="m598.61 269.47s11.792-20.445 23.384-33.006c10.292-11.153 38.795-33.282 38.795-33.282"/>
 </g>
</svg>
